<?xml version="1.0" encoding="UTF-8"?>
<svg width="18px" height="18px" viewBox="0 0 18 18" version="1.1" xmlns="http://www.w3.org/2000/svg" xmlns:xlink="http://www.w3.org/1999/xlink">
    <g stroke="none" stroke-width="1" fill="none" fill-rule="evenodd">
        <path d="M18,9 C18,4.02943725 13.9705627,0 9,0 C4.02943725,0 0,4.02943725 0,9 C0,13.4914062 3.28125,17.2303125 7.5703125,17.8828125 L7.5703125,11.6015625 L5.30859375,11.6015625 L5.30859375,9 L7.5703125,9 L7.5703125,7.01953125 C7.5703125,4.76171875 8.91796875,3.515625 11.0429688,3.515625 C12.0585938,3.515625 13.1132812,3.76171875 13.1132812,3.76171875 L13.1132812,5.765625 L11.9726562,5.765625 C10.875,5.765625 10.4296875,6.48046875 10.4296875,7.21875 L10.4296875,9 L13.0117188,9 L12.6445312,11.6015625 L10.4296875,11.6015625 L10.4296875,17.8828125 C14.71875,17.2303125 18,13.4914062 18,9" fill="#1877F2"></path>
    </g>
</svg> 